<svg xmlns="http://www.w3.org/2000/svg" width="968.834" height="1597.245" viewBox="0 0 968.834 1597.245">
  <g id="Group_25" data-name="Group 25" transform="translate(350.149 270.042)">
    <g id="Group_24" data-name="Group 24">
      <g id="money" transform="translate(-260.738 249.159) rotate(-45)" opacity="0.4">
        <g id="Group_23" data-name="Group 23" transform="translate(0 87.1)">
          <g id="Group_15" data-name="Group 15" transform="translate(466.778 69.083)">
            <g id="Group_14" data-name="Group 14">
              <path id="Path_12" data-name="Path 12" d="M472.235,226.417a98.617,98.617,0,1,0-98.617,98.617A98.591,98.591,0,0,0,472.235,226.417ZM368.186,293.8c-2.716,0-4.074-1.528-4.074-4.243v-6.45c0-4.753-.17-4.922-4.753-5.6a59.225,59.225,0,0,1-16.8-4.753c-4.074-2.037-4.583-3.055-3.395-7.468.849-3.225,1.7-6.45,2.716-9.675,1.188-3.734,2.207-4.243,5.6-2.376a54.386,54.386,0,0,0,18.5,5.6A23.075,23.075,0,0,0,378.2,257.31c7.3-3.225,8.317-11.542,2.207-16.634a25.864,25.864,0,0,0-6.959-4.074c-6.28-2.716-13.07-4.922-19.011-8.487-9.675-5.771-15.955-13.918-15.276-25.63.849-13.409,8.317-21.726,20.708-26.309,5.092-1.867,5.092-1.7,5.092-7.129v-5.432c.17-4.074.849-4.753,4.753-4.753h3.734c8.487,0,8.487,0,8.487,8.487,0,5.941,0,5.941,5.941,6.959a51.628,51.628,0,0,1,13.24,3.9q3.564,1.528,2.546,5.092c-1.018,3.734-2.037,7.3-3.225,11.033-1.188,3.395-2.207,3.9-5.432,2.376a40.453,40.453,0,0,0-20.878-4.074,16.574,16.574,0,0,0-5.6,1.188c-6.28,2.716-7.3,9.675-2.037,14.088a36.189,36.189,0,0,0,9,5.092,180.487,180.487,0,0,1,16.465,7.468c16.974,9.336,21.557,30.553,9.505,45.15a30.518,30.518,0,0,1-16.465,10.524c-2.886.849-4.074,2.207-4.074,5.262.17,2.885,0,5.771,0,8.657,0,2.546-1.358,4.074-3.9,4.074C374.466,293.973,371.241,293.973,368.186,293.8Z" transform="translate(-275 -127.8)" fill="#fff"/>
            </g>
          </g>
          <g id="Group_16" data-name="Group 16" transform="translate(394.64 145.295)">
            <circle id="Ellipse_6" data-name="Ellipse 6" cx="27.328" cy="27.328" r="27.328" fill="#fff"/>
          </g>
          <g id="Group_17" data-name="Group 17" transform="translate(681.666 145.295)">
            <circle id="Ellipse_7" data-name="Ellipse 7" cx="27.328" cy="27.328" r="27.328" fill="#fff"/>
          </g>
          <g id="Group_18" data-name="Group 18" transform="translate(308.752 6.789)">
            <path id="Path_13" data-name="Path 13" d="M656.486,91.1H226.88a45.058,45.058,0,0,0-44.98,44.98V286.128c6.62-.339,13.24-.509,20.029-.509,6.28,0,12.391.17,18.5.509V184.8a48.207,48.207,0,0,0,11.2,1.358,45.673,45.673,0,0,0,45.659-45.659,48.207,48.207,0,0,0-1.358-11.2H610.487A45.246,45.246,0,0,0,655.3,183.267a60.645,60.645,0,0,0,7.978-.679V320.925a41.044,41.044,0,0,0-7.978-.679A45.673,45.673,0,0,0,609.638,365.9a44.571,44.571,0,0,0,.849,8.317H370.648v38.53H656.316a45.058,45.058,0,0,0,44.98-44.98V136.08A44.8,44.8,0,0,0,656.486,91.1Z" transform="translate(-181.9 -91.1)" fill="#fff"/>
          </g>
          <g id="Group_20" data-name="Group 20">
            <g id="Group_19" data-name="Group 19">
              <path id="Path_14" data-name="Path 14" d="M45.829,313.7c24.782,9.336,57.541,14.428,92.167,14.428a321.777,321.777,0,0,0,52.449-4.243c9-6.789,20.538-13.24,35.305-18.671a255.975,255.975,0,0,1,50.242-12.391v-25.63h0V207.783h0V148.375c0-13.409-7.978-32.42-45.829-46.678C205.382,92.192,172.623,87.1,138,87.1s-67.386,5.092-92.167,14.428C7.978,115.616,0,134.626,0,148.205v59.408H0v59.408H0v60.087H0v59.408H0v58.729c0,13.409,7.978,32.42,45.829,46.678,24.782,9.336,57.541,14.428,92.167,14.428,7.468,0,14.767-.17,22.066-.679V475.289c-7.129.509-14.6.849-22.066.849-31.062,0-60.087-4.413-81.474-12.391-21.217-7.978-26.14-15.955-26.14-17.992v-19.18a134.97,134.97,0,0,0,15.446,6.79C70.611,442.7,103.37,447.792,138,447.792c7.468,0,14.767-.17,22.066-.679V415.881c-7.129.509-14.6.849-22.066.849-31.062,0-60.087-4.413-81.474-12.391-21.217-7.978-26.14-15.955-26.14-17.992V367.336a134.97,134.97,0,0,0,15.446,6.789c24.782,9.336,57.541,14.428,92.167,14.428,7.468,0,14.767-.17,22.066-.679v-7.3a63.43,63.43,0,0,1,5.092-25.121c-8.826.849-17.822,1.188-27.158,1.188-31.062,0-60.087-4.413-81.474-12.391-21.217-7.978-26.14-15.955-26.14-17.992V307.249C34.966,309.117,40.058,311.493,45.829,313.7ZM56.523,130.044C78.079,122.066,107.1,117.653,138,117.653c31.062,0,60.087,4.413,81.474,12.391,20.538,7.638,25.63,15.276,25.97,17.822v.509c-.339,2.546-5.432,10.184-25.97,17.822-21.557,7.978-50.582,12.391-81.474,12.391-31.062,0-60.087-4.413-81.474-12.391-21.217-7.978-26.14-15.955-26.14-17.992S35.305,137.852,56.523,130.044Zm-26.14,57.711a134.981,134.981,0,0,0,15.446,6.79c24.782,9.336,57.541,14.428,92.167,14.428s67.386-5.092,92.167-14.428a149.612,149.612,0,0,0,15.446-6.79v19.011h0v.17c-.339,2.546-5.432,10.184-25.97,17.822-21.557,7.978-50.582,12.391-81.474,12.391-31.062,0-60.087-4.413-81.474-12.391-21.217-7.978-26.14-15.955-26.14-17.992V187.754Zm0,59.578a134.973,134.973,0,0,0,15.446,6.79c24.782,9.336,57.541,14.428,92.167,14.428s67.386-5.092,92.167-14.428a149.6,149.6,0,0,0,15.446-6.79v19.011h0v.17c-.339,2.546-5.432,10.184-25.97,17.822-21.557,7.978-50.582,12.391-81.474,12.391-31.062,0-60.087-4.413-81.474-12.391-21.217-7.978-26.14-15.955-26.14-17.992V247.332Z" transform="translate(0 -87.1)" fill="#fff"/>
            </g>
          </g>
          <g id="Group_22" data-name="Group 22" transform="translate(190.615 232.031)">
            <g id="Group_21" data-name="Group 21">
              <path id="Path_15" data-name="Path 15" d="M342.464,238.228C317.682,228.892,284.923,223.8,250.3,223.8s-67.386,5.092-92.167,14.428c-37.851,14.088-45.829,33.1-45.829,46.678v59.408h0v59.408h0V463.13c0,13.409,7.978,32.42,45.829,46.678,24.782,9.335,57.541,14.428,92.167,14.428s67.386-5.092,92.167-14.428c37.851-14.088,45.829-33.1,45.829-46.678v-.679h0V403.722h0V344.314h0V284.905C388.463,271.5,380.485,252.486,342.464,238.228ZM168.823,266.913c21.557-7.978,50.582-12.391,81.474-12.391,31.062,0,60.087,4.413,81.474,12.391,20.538,7.638,25.8,15.276,25.97,17.822v.509c-.339,2.546-5.432,10.184-25.97,17.822-21.557,7.978-50.582,12.391-81.474,12.391-31.062,0-60.087-4.413-81.474-12.391-21.217-7.978-26.14-15.955-26.14-17.992S147.436,274.721,168.823,266.913ZM331.94,480.782c-21.557,7.978-50.582,12.391-81.474,12.391-31.062,0-60.087-4.413-81.474-12.391-21.217-7.978-26.14-15.955-26.14-17.992V443.78a134.974,134.974,0,0,0,15.446,6.79C183.081,459.9,215.84,465,250.466,465s67.386-5.092,92.167-14.428a149.6,149.6,0,0,0,15.446-6.79V462.79C357.91,464.827,353.157,472.8,331.94,480.782Zm25.97-77.57h0v.17c-.34,2.546-5.432,10.184-25.97,17.822-21.557,7.978-50.582,12.391-81.474,12.391-31.062,0-60.087-4.413-81.474-12.391-21.217-7.978-26.14-15.955-26.14-17.992V384.2a134.969,134.969,0,0,0,15.446,6.789c24.782,9.336,57.541,14.428,92.167,14.428s67.386-5.092,92.167-14.428A149.594,149.594,0,0,0,358.08,384.2l-.17,19.011Zm0-59.578h0v.17c-.34,2.546-5.432,10.184-25.97,17.822-21.557,7.978-50.582,12.391-81.474,12.391-31.062,0-60.087-4.413-81.474-12.391-21.217-7.978-26.14-15.955-26.14-17.992V324.624a134.974,134.974,0,0,0,15.446,6.789c24.782,9.336,57.541,14.428,92.167,14.428s67.386-5.092,92.167-14.428a149.6,149.6,0,0,0,15.446-6.789l-.17,19.011Z" transform="translate(-112.3 -223.8)" fill="#fff"/>
            </g>
          </g>
        </g>
      </g>
      <g id="money-2" data-name="money" transform="translate(-411.738 969.159) rotate(-45)" opacity="0.4">
        <g id="Group_23-2" data-name="Group 23" transform="translate(0 87.1)">
          <g id="Group_15-2" data-name="Group 15" transform="translate(466.778 69.083)">
            <g id="Group_14-2" data-name="Group 14">
              <path id="Path_12-2" data-name="Path 12" d="M472.235,226.417a98.617,98.617,0,1,0-98.617,98.617A98.591,98.591,0,0,0,472.235,226.417ZM368.186,293.8c-2.716,0-4.074-1.528-4.074-4.243v-6.45c0-4.753-.17-4.922-4.753-5.6a59.225,59.225,0,0,1-16.8-4.753c-4.074-2.037-4.583-3.055-3.395-7.468.849-3.225,1.7-6.45,2.716-9.675,1.188-3.734,2.207-4.243,5.6-2.376a54.386,54.386,0,0,0,18.5,5.6A23.075,23.075,0,0,0,378.2,257.31c7.3-3.225,8.317-11.542,2.207-16.634a25.864,25.864,0,0,0-6.959-4.074c-6.28-2.716-13.07-4.922-19.011-8.487-9.675-5.771-15.955-13.918-15.276-25.63.849-13.409,8.317-21.726,20.708-26.309,5.092-1.867,5.092-1.7,5.092-7.129v-5.432c.17-4.074.849-4.753,4.753-4.753h3.734c8.487,0,8.487,0,8.487,8.487,0,5.941,0,5.941,5.941,6.959a51.628,51.628,0,0,1,13.24,3.9q3.564,1.528,2.546,5.092c-1.018,3.734-2.037,7.3-3.225,11.033-1.188,3.395-2.207,3.9-5.432,2.376a40.453,40.453,0,0,0-20.878-4.074,16.574,16.574,0,0,0-5.6,1.188c-6.28,2.716-7.3,9.675-2.037,14.088a36.189,36.189,0,0,0,9,5.092,180.487,180.487,0,0,1,16.465,7.468c16.974,9.336,21.557,30.553,9.505,45.15a30.518,30.518,0,0,1-16.465,10.524c-2.886.849-4.074,2.207-4.074,5.262.17,2.885,0,5.771,0,8.657,0,2.546-1.358,4.074-3.9,4.074C374.466,293.973,371.241,293.973,368.186,293.8Z" transform="translate(-275 -127.8)" fill="#fff"/>
            </g>
          </g>
          <g id="Group_16-2" data-name="Group 16" transform="translate(394.64 145.295)">
            <circle id="Ellipse_6-2" data-name="Ellipse 6" cx="27.328" cy="27.328" r="27.328" fill="#fff"/>
          </g>
          <g id="Group_17-2" data-name="Group 17" transform="translate(681.666 145.295)">
            <circle id="Ellipse_7-2" data-name="Ellipse 7" cx="27.328" cy="27.328" r="27.328" fill="#fff"/>
          </g>
          <g id="Group_18-2" data-name="Group 18" transform="translate(308.752 6.789)">
            <path id="Path_13-2" data-name="Path 13" d="M656.486,91.1H226.88a45.058,45.058,0,0,0-44.98,44.98V286.128c6.62-.339,13.24-.509,20.029-.509,6.28,0,12.391.17,18.5.509V184.8a48.207,48.207,0,0,0,11.2,1.358,45.673,45.673,0,0,0,45.659-45.659,48.207,48.207,0,0,0-1.358-11.2H610.487A45.246,45.246,0,0,0,655.3,183.267a60.645,60.645,0,0,0,7.978-.679V320.925a41.044,41.044,0,0,0-7.978-.679A45.673,45.673,0,0,0,609.638,365.9a44.571,44.571,0,0,0,.849,8.317H370.648v38.53H656.316a45.058,45.058,0,0,0,44.98-44.98V136.08A44.8,44.8,0,0,0,656.486,91.1Z" transform="translate(-181.9 -91.1)" fill="#fff"/>
          </g>
          <g id="Group_20-2" data-name="Group 20">
            <g id="Group_19-2" data-name="Group 19">
              <path id="Path_14-2" data-name="Path 14" d="M45.829,313.7c24.782,9.336,57.541,14.428,92.167,14.428a321.777,321.777,0,0,0,52.449-4.243c9-6.789,20.538-13.24,35.305-18.671a255.975,255.975,0,0,1,50.242-12.391v-25.63h0V207.783h0V148.375c0-13.409-7.978-32.42-45.829-46.678C205.382,92.192,172.623,87.1,138,87.1s-67.386,5.092-92.167,14.428C7.978,115.616,0,134.626,0,148.205v59.408H0v59.408H0v60.087H0v59.408H0v58.729c0,13.409,7.978,32.42,45.829,46.678,24.782,9.336,57.541,14.428,92.167,14.428,7.468,0,14.767-.17,22.066-.679V475.289c-7.129.509-14.6.849-22.066.849-31.062,0-60.087-4.413-81.474-12.391-21.217-7.978-26.14-15.955-26.14-17.992v-19.18a134.97,134.97,0,0,0,15.446,6.79C70.611,442.7,103.37,447.792,138,447.792c7.468,0,14.767-.17,22.066-.679V415.881c-7.129.509-14.6.849-22.066.849-31.062,0-60.087-4.413-81.474-12.391-21.217-7.978-26.14-15.955-26.14-17.992V367.336a134.97,134.97,0,0,0,15.446,6.789c24.782,9.336,57.541,14.428,92.167,14.428,7.468,0,14.767-.17,22.066-.679v-7.3a63.43,63.43,0,0,1,5.092-25.121c-8.826.849-17.822,1.188-27.158,1.188-31.062,0-60.087-4.413-81.474-12.391-21.217-7.978-26.14-15.955-26.14-17.992V307.249C34.966,309.117,40.058,311.493,45.829,313.7ZM56.523,130.044C78.079,122.066,107.1,117.653,138,117.653c31.062,0,60.087,4.413,81.474,12.391,20.538,7.638,25.63,15.276,25.97,17.822v.509c-.339,2.546-5.432,10.184-25.97,17.822-21.557,7.978-50.582,12.391-81.474,12.391-31.062,0-60.087-4.413-81.474-12.391-21.217-7.978-26.14-15.955-26.14-17.992S35.305,137.852,56.523,130.044Zm-26.14,57.711a134.981,134.981,0,0,0,15.446,6.79c24.782,9.336,57.541,14.428,92.167,14.428s67.386-5.092,92.167-14.428a149.612,149.612,0,0,0,15.446-6.79v19.011h0v.17c-.339,2.546-5.432,10.184-25.97,17.822-21.557,7.978-50.582,12.391-81.474,12.391-31.062,0-60.087-4.413-81.474-12.391-21.217-7.978-26.14-15.955-26.14-17.992V187.754Zm0,59.578a134.973,134.973,0,0,0,15.446,6.79c24.782,9.336,57.541,14.428,92.167,14.428s67.386-5.092,92.167-14.428a149.6,149.6,0,0,0,15.446-6.79v19.011h0v.17c-.339,2.546-5.432,10.184-25.97,17.822-21.557,7.978-50.582,12.391-81.474,12.391-31.062,0-60.087-4.413-81.474-12.391-21.217-7.978-26.14-15.955-26.14-17.992V247.332Z" transform="translate(0 -87.1)" fill="#fff"/>
            </g>
          </g>
          <g id="Group_22-2" data-name="Group 22" transform="translate(190.615 232.031)">
            <g id="Group_21-2" data-name="Group 21">
              <path id="Path_15-2" data-name="Path 15" d="M342.464,238.228C317.682,228.892,284.923,223.8,250.3,223.8s-67.386,5.092-92.167,14.428c-37.851,14.088-45.829,33.1-45.829,46.678v59.408h0v59.408h0V463.13c0,13.409,7.978,32.42,45.829,46.678,24.782,9.335,57.541,14.428,92.167,14.428s67.386-5.092,92.167-14.428c37.851-14.088,45.829-33.1,45.829-46.678v-.679h0V403.722h0V344.314h0V284.905C388.463,271.5,380.485,252.486,342.464,238.228ZM168.823,266.913c21.557-7.978,50.582-12.391,81.474-12.391,31.062,0,60.087,4.413,81.474,12.391,20.538,7.638,25.8,15.276,25.97,17.822v.509c-.339,2.546-5.432,10.184-25.97,17.822-21.557,7.978-50.582,12.391-81.474,12.391-31.062,0-60.087-4.413-81.474-12.391-21.217-7.978-26.14-15.955-26.14-17.992S147.436,274.721,168.823,266.913ZM331.94,480.782c-21.557,7.978-50.582,12.391-81.474,12.391-31.062,0-60.087-4.413-81.474-12.391-21.217-7.978-26.14-15.955-26.14-17.992V443.78a134.974,134.974,0,0,0,15.446,6.79C183.081,459.9,215.84,465,250.466,465s67.386-5.092,92.167-14.428a149.6,149.6,0,0,0,15.446-6.79V462.79C357.91,464.827,353.157,472.8,331.94,480.782Zm25.97-77.57h0v.17c-.34,2.546-5.432,10.184-25.97,17.822-21.557,7.978-50.582,12.391-81.474,12.391-31.062,0-60.087-4.413-81.474-12.391-21.217-7.978-26.14-15.955-26.14-17.992V384.2a134.969,134.969,0,0,0,15.446,6.789c24.782,9.336,57.541,14.428,92.167,14.428s67.386-5.092,92.167-14.428A149.594,149.594,0,0,0,358.08,384.2l-.17,19.011Zm0-59.578h0v.17c-.34,2.546-5.432,10.184-25.97,17.822-21.557,7.978-50.582,12.391-81.474,12.391-31.062,0-60.087-4.413-81.474-12.391-21.217-7.978-26.14-15.955-26.14-17.992V324.624a134.974,134.974,0,0,0,15.446,6.789c24.782,9.336,57.541,14.428,92.167,14.428s67.386-5.092,92.167-14.428a149.6,149.6,0,0,0,15.446-6.789l-.17,19.011Z" transform="translate(-112.3 -223.8)" fill="#fff"/>
            </g>
          </g>
        </g>
      </g>
    </g>
  </g>
</svg>
