<svg id="Group_2" data-name="Group 2" xmlns="http://www.w3.org/2000/svg" width="45" height="45" viewBox="0 0 45 45">
  <g id="Group_1" data-name="Group 1">
    <g id="Ellipse_1" data-name="Ellipse 1" transform="translate(6 6)" fill="#465bca" stroke="#465bca" stroke-width="5">
      <circle cx="16.5" cy="16.5" r="16.5" stroke="none"/>
      <circle cx="16.5" cy="16.5" r="14" fill="none"/>
    </g>
    <g id="Ellipse_2" data-name="Ellipse 2" fill="none" stroke="#465bca" stroke-width="3">
      <circle cx="22.5" cy="22.5" r="22.5" stroke="none"/>
      <circle cx="22.5" cy="22.5" r="21" fill="none"/>
    </g>
  </g>
  <g id="budgeting" transform="translate(11 11)">
    <path id="Path_2" data-name="Path 2" d="M25.373,11.8H20.89a7.1,7.1,0,0,0-.372-1.578h4.925a.676.676,0,0,0,.676-.669A9.441,9.441,0,0,0,16.675,0,.676.676,0,0,0,16,.676V5.841a7.1,7.1,0,0,0-1.54-.319V2.971a.676.676,0,0,0-.676-.676A10.353,10.353,0,1,0,20.059,20.88a.677.677,0,0,0,.124-.952l-1.56-2.015a7.211,7.211,0,0,0,1.209-1.447l1.947,2.516a.676.676,0,0,0,.946.124,8.4,8.4,0,0,0,3.324-6.617A.677.677,0,0,0,25.373,11.8ZM17.351,1.381a8.09,8.09,0,0,1,7.4,7.493H19.861a7.212,7.212,0,0,0-2.51-2.429ZM18.682,20.2a8.91,8.91,0,0,1-4.9,1.449,9,9,0,0,1-.676-17.974V5.522a7.157,7.157,0,1,0,4.441,13.21Zm-4.9-1.746a5.8,5.8,0,1,1,5.8-5.8A5.811,5.811,0,0,1,13.782,18.452ZM22.42,17.6l-1.92-2.48a7.106,7.106,0,0,0,.421-1.96h3.735A7.038,7.038,0,0,1,22.42,17.6Z" transform="translate(-3.429)" fill="#fff"/>
    <path id="Path_3" data-name="Path 3" d="M176.388,183.388h-1.453a.628.628,0,0,1,0-1.256h1.4a.946.946,0,0,1,.674.306.676.676,0,0,0,.987-.925,2.3,2.3,0,0,0-1.659-.734v-.589a.676.676,0,0,0-1.353,0v.589a1.981,1.981,0,1,0-.05,3.962h1.453a.628.628,0,1,1-.01,1.256H174.86a.955.955,0,0,1-.525-.178.676.676,0,0,0-.771,1.112,2.3,2.3,0,0,0,1.421.42v.589a.676.676,0,1,0,1.353,0v-.589a1.981,1.981,0,1,0,.05-3.962Z" transform="translate(-165.309 -171.417)" fill="#fff"/>
  </g>
</svg>
